<?xml version="1.0" standalone="no"?>
<!DOCTYPE svg PUBLIC "-//W3C//DTD SVG 1.1//EN" "http://www.w3.org/Graphics/SVG/1.1/DTD/svg11.dtd" >
<!--
2013-9-30: Created.
-->
<svg>
<metadata>
Created by iconfont
</metadata>
<defs>

<font id="iconfont" horiz-adv-x="1024" >
  <font-face
    font-family="iconfont"
    font-weight="500"
    font-stretch="normal"
    units-per-em="1024"
    ascent="896"
    descent="-128"
  />
    <missing-glyph />
    
    <glyph glyph-name="xiaozurenwu" unicode="&#58928;" d="M512.000512 747.696462c-247.270585 0-447.714806-200.446241-447.714806-447.696462s200.444221-447.696462 447.714806-447.696462c247.270585 0 447.714806 200.446241 447.714806 447.696462S759.271096 747.696462 512.000512 747.696462zM619.669015 337.199227c2.712896 1.350764 3.147819 1.442862 4.761639 0.353041-2.653542 9.584286-3.975707 23.932062-1.442921 36.544311 3.228663 16.041348 15.620386 17.473977 30.178536 17.918092 14.650252 0.433882 28.039739-4.54041 31.006425-20.198018 1.532975-8.061606 0.999811-23.014156-1.614843-34.394345 1.745832 1.220804 2.180755 1.220804 4.965285-0.222057 1.059165-8.324596 0.091078-13.519921-6.356015-17.788132-5.933372-42.648332-47.059687-40.862663-55.474679 0.261966C619.547236 323.901363 618.588359 329.04757 619.669015 337.199227zM663.972825 278.509547c-1.432687-3.571339-2.522553-8.162914-3.824252-11.946077l-10.684778 0c-1.442921 3.753487-3.45073 8.273431-4.933561 11.855002l2.713919 3.440355c4.611207-0.080841 9.321678 0.091074 13.944142 0L663.972825 278.509547zM477.291613 546.070348c2.663775 1.362021 3.137585 1.401929 4.762662 0.353041-2.622841 9.544377-3.975707 23.932062-1.40301 36.543288 3.228663 16.042371 15.568195 17.475 30.138626 17.919115 14.650252 0.433882 28.039739-4.54041 30.996191-20.188808 1.573909-8.061606 1.009021-23.024389-1.563676-34.404578 1.745832 1.179872 2.139821 1.179872 4.933561-0.222057 1.088842-8.323573 0.039911-13.509688-6.417416-17.788132-5.882205-42.647309-47.00852-40.86164-55.413278 0.222057C477.169835 532.772484 476.201747 537.917668 477.291613 546.070348zM521.645568 487.379645c-1.482831-3.571339-2.532787-8.15268-3.833462-11.946077l-10.735945 0c-1.442921 3.703345-3.400586 8.283664-4.924351 11.855002l2.704709 3.440355c4.661351-0.080841 9.343168 0.101307 14.005542 0L521.645568 487.379645zM477.169835 489.649338c4.973472-25.688055 14.821151-43.091424 26.808651-50.15326 1.17992 10.683317 2.320954 21.721721 3.622652 32.708959l10.079979 0c1.310909-11.249205 2.876632-22.236444 4.399374-33.274848 10.38289 5.749958 19.927658 22.630417 26.515973 51.022047 20.058647-18.534122 44.354978 2.653433 55.8175-54.462402-58.652175-27.865651-121.229913-27.865651-184.805415 0C431.342259 491.567014 460.511774 472.074054 477.169835 489.649338zM334.914212 337.199227c2.713919 1.350764 3.137585 1.442862 4.792339 0.353041-2.653542 9.584286-4.005385 23.932062-1.472598 36.544311 3.269597 16.041348 15.619362 17.473977 30.178536 17.918092 14.650252 0.433882 28.079649-4.54041 31.046335-20.198018 1.523765-8.061606 0.958877-23.014156-1.614843-34.394345 1.745832 1.220804 2.138798 1.220804 4.924351-0.222057 1.089866-8.324596 0.091078-13.519921-6.356015-17.788132-5.942583-42.648332-47.018753-40.862663-55.473655 0.261966C334.823134 323.901363 333.87449 329.04757 334.914212 337.199227zM379.268166 278.509547c-1.442921-3.571339-2.572697-8.162914-3.843696-11.946077l-10.675568 0c-1.493065 3.753487-3.45073 8.273431-4.974495 11.855002l2.694476 3.440355c4.681818-0.080841 9.343168 0.091074 14.004519 0L379.268166 278.509547zM277.220914 226.609503c11.73371 56.07718 40.904248 36.58422 57.572542 54.159504 4.964262-25.688055 14.862085-43.041282 26.808651-50.14405 1.17071 10.68434 2.350631 21.763676 3.662563 32.709983l10.039045 0c1.311932-11.209296 2.875608-22.236444 4.439284-33.274848 10.331723 5.79089 19.886724 22.630417 26.424895 51.011814 20.149725-18.523889 44.394888 2.664689 55.907555-54.462402C403.383365 198.742828 340.856794 198.742828 277.220914 226.609503zM453.832381 300.182149l0-23.165606-31.449535 27.997658 31.449535 28.390607 0-23.589254 53.546691 0L507.379072 370.422909l-23.590221 0 28.392794 31.439036 28.039739-31.439036-23.196232 0 0-60.607356 53.162935 0 0 23.589254 31.429068-28.390607-31.429068-27.997658 0 23.165606C531.412402 300.182149 492.607041 300.182149 453.832381 300.182149zM561.943994 226.609503c11.76441 56.07718 40.904248 36.58422 57.552075 54.159504 4.983705-25.688055 14.872318-43.041282 26.870052-50.14405 1.129776 10.68434 2.31072 21.763676 3.621629 32.709983l10.069746 0c1.310909-11.209296 2.876632-22.236444 4.399374-33.274848 10.340933 5.79089 19.936868 22.630417 26.475039 51.011814 20.099581-18.523889 44.395912 2.664689 55.857411-54.462402C688.148401 198.742828 625.611597 198.742828 561.943994 226.609503z"  horiz-adv-x="1024" />

    
    <glyph glyph-name="yingxiaohuodongfengxian" unicode="&#58911;" d="M192.2 716.7l322.6-24.2 372.8-372.8c6.2-6.2 6.7-15.7 1.1-21.2l-271-271c-3.2-3.2-7-3.9-9.6-3.9-2.5 0-7.3 0.6-11.6 5l-373.3 373.2-31 314.9M177.6 768c-20.9-0.1-37.3-16.8-36.9-37.8l34.5-351.1 385.9-385.9c13.1-13.1 30.1-19.6 47-19.6 16.4 0 32.6 6.2 45 18.5l271 271c25.1 25.1 24.6 66.3-1.1 92l-385.9 385.9-359.5 27zM389.6 425.1c-26.9 0-52.2 10.5-71.2 29.5s-29.5 44.3-29.5 71.2 10.5 52.2 29.5 71.2 44.3 29.5 71.2 29.5c26.9 0 52.2-10.5 71.2-29.5s29.5-44.3 29.5-71.2-10.5-52.2-29.5-71.2-44.3-29.5-71.2-29.5zM389.6 576.5c-13.5 0-26.3-5.3-35.9-14.9-9.6-9.6-14.9-22.3-14.9-35.9s5.3-26.3 14.9-35.9c9.6-9.6 22.3-14.9 35.9-14.9 13.5 0 26.3 5.3 35.9 14.9 19.8 19.8 19.8 51.9 0 71.7-9.6 9.7-22.3 15-35.9 15zM648.6 168.4c-9.8-9.8-25.6-9.8-35.4 0l-145.4 145.5c-9.8 9.8-9.8 25.6 0 35.4s25.6 9.8 35.4 0l145.4-145.4c9.7-9.9 9.7-25.7 0-35.5zM747.3 266.7c-9.8-9.8-25.6-9.8-35.4 0l-145.4 145.4c-9.8 9.8-9.8 25.6 0 35.4 9.8 9.8 25.6 9.8 35.4 0l145.4-145.5c9.8-9.7 9.8-25.5 0-35.3z"  horiz-adv-x="1024" />

    
    <glyph glyph-name="lvsefenkaicankaoxianban-" unicode="&#58901;" d="M211.2 531.2h593.066667v-524.8H211.2zM840.533333 467.2H782.933333c-12.8 0-21.333333 8.533333-21.333333 21.333333s8.533333 21.333333 21.333333 21.333334h46.933334L512 791.466667 187.733333 509.866667h40.533334c12.8 0 21.333333-8.533333 21.333333-21.333334s-8.533333-21.333333-21.333333-21.333333h-8.533334c-87.466667-2.133333-96 0-102.4 17.066667-4.266667 8.533333 0 19.2 6.4 25.6l369.066667 320c12.8 10.666667 29.866667 10.666667 40.533333 0l373.333334-330.666667-4.266667-14.933333c-6.4-14.933333-12.8-17.066667-61.866667-17.066667zM774.4-17.066667000000052H243.2c-29.866667 0-53.333333 21.333333-53.333333 49.066667V435.2c0 12.8 8.533333 21.333333 21.333333 21.333333s21.333333-8.533333 21.333333-21.333333v-401.066667c0-4.266667 4.266667-6.4 10.666667-6.4h531.2c6.4 0 10.666667 4.266667 10.666667 6.4V435.2c0 12.8 8.533333 21.333333 21.333333 21.333333s21.333333-8.533333 21.333333-21.333333v-401.066667c-2.133333-27.733333-25.6-51.2-53.333333-51.2zM507.733333 326.4m-138.666666 0a138.666667 138.666667 0 1 1 277.333333 0 138.666667 138.666667 0 1 1-277.333333 0ZM507.733333 164.26666699999998c-89.6 0-160 72.533333-160 160 0 89.6 72.533333 160 160 160s160-72.533333 160-160c2.133333-87.466667-70.4-160-160-160z m0 279.466666c-66.133333 0-117.333333-53.333333-117.333333-117.333333s53.333333-117.333333 117.333333-117.333333c66.133333 0 117.333333 53.333333 117.333334 117.333333s-51.2 117.333333-117.333334 117.333333z"  horiz-adv-x="1024" />

    
    <glyph glyph-name="xingzhuanggongnengtubiao-" unicode="&#58907;" d="M595.2 360.533333l166.4-51.2c34.133333-10.666667 55.466667-36.266667 55.466667-64v-230.4c0-17.066667-19.2-32-42.666667-32H236.8c-23.466667 0-42.666667 14.933333-42.666667 32V245.333333c0 27.733333 21.333333 53.333333 55.466667 64l166.4 51.2M595.2 494.933333l166.4-70.4c34.133333-14.933333 55.466667-49.066667 55.466667-85.333333v-311.466667c0-23.466667-19.2-44.8-42.666667-44.8H236.8c-23.466667 0-42.666667 19.2-42.666667 44.8V339.2c0 38.4 21.333333 72.533333 55.466667 85.333333l166.4 70.4M776.533333-38.4H236.8c-34.133333 0-64 29.866667-64 66.133333V339.2c0 46.933333 27.733333 87.466667 68.266667 106.666667l166.4 70.4 17.066666-38.4-164.266666-72.533334c-25.6-10.666667-42.666667-36.266667-42.666667-66.133333v-311.466667c0-12.8 8.533333-23.466667 21.333333-23.466666h537.6c10.666667 0 21.333333 10.666667 21.333334 23.466666V339.2c0 29.866667-17.066667 55.466667-42.666667 66.133333l-166.4 70.4 17.066667 38.4 166.4-70.4c42.666667-17.066667 68.266667-59.733333 68.266666-106.666666v-311.466667c-2.133333-34.133333-29.866667-64-64-64zM490.666667 273.066667l-110.933334 194.133333c-6.4 12.8 2.133333 25.6 14.933334 25.6H618.666667c12.8 0 21.333333-14.933333 14.933333-25.6l-110.933333-194.133333c-8.533333-10.666667-25.6-10.666667-32 0zM505.6 243.2c-14.933333 0-27.733333 6.4-34.133333 19.2l-110.933334 194.133333c-6.4 12.8-6.4 27.733333 0 38.4 6.4 12.8 19.2 19.2 34.133334 19.2H618.666667c14.933333 0 27.733333-6.4 34.133333-19.2 6.4-12.8 6.4-27.733333 0-38.4l-110.933333-194.133333c-8.533333-10.666667-21.333333-19.2-36.266667-19.2z m4.266667 40.533333z m-108.8 189.866667l104.533333-183.466667 104.533333 183.466667h-209.066666zM505.6 650.666667m-177.066667 0a177.066667 177.066667 0 1 1 354.133334 0 177.066667 177.066667 0 1 1-354.133334 0ZM505.6 460.8c-104.533333 0-187.733333 85.333333-187.733333 187.733333s85.333333 187.733333 187.733333 187.733334 187.733333-85.333333 187.733333-187.733334-83.2-187.733333-187.733333-187.733333z m0 356.266667c-91.733333 0-166.4-74.666667-166.4-166.4s74.666667-166.4 166.4-166.4 166.4 74.666667 166.4 166.4-72.533333 166.4-166.4 166.4zM731.733333 142.933333c-10.666667 0-21.333333 8.533333-21.333333 21.333334l-4.266667 100.266666c0 12.8 8.533333 21.333333 21.333334 21.333334 10.666667 2.133333 21.333333-8.533333 21.333333-21.333334l4.266667-100.266666c0-10.666667-8.533333-21.333333-21.333334-21.333334z"  horiz-adv-x="1024" />

    
    <glyph glyph-name="xiaoyuantoupiao" unicode="&#58904;" d="M512 384m-512 0a512 512 0 1 1 1024 0 512 512 0 1 1-1024 0ZM930.4 131.2H109.6l39.2 104c11.2 29.6 40 49.6 72 49.6h599.2c32 0 60.8-20 72-49.6l38.4-104z m-784 25.6h747.2l-25.6 69.6c-7.2 20-26.4 33.6-48 33.6h-600c-21.6 0-40.8-13.6-48-33.6l-25.6-69.6zM555.2 797.6l256-207.2c13.6-11.2 16-31.2 4.8-44.8L548 214.4c-11.2-13.6-31.2-16-44.8-4.8l-256 207.2c-13.6 11.2-16 31.2-4.8 44.8l267.2 331.2c11.2 14.4 32 16 45.6 4.8zM523.2 190.4c-9.6 0-20 3.2-28 9.6l-256 207.2c-9.6 7.2-15.2 18.4-16 30.4-1.6 12 2.4 23.2 9.6 32.8l267.2 330.4c7.2 9.6 18.4 15.2 30.4 16 12 1.6 23.2-2.4 32.8-9.6l256-207.2c9.6-7.2 15.2-18.4 16-30.4 1.6-12-2.4-23.2-9.6-32.8L557.6 206.4c-8.8-10.4-21.6-16-34.4-16zM535.2 792h-2.4c-4.8-0.8-9.6-3.2-12.8-7.2L252 454.4c-3.2-4-4.8-8.8-4-14.4 0.8-4.8 3.2-9.6 7.2-12.8l256-207.2c8-6.4 20-5.6 27.2 3.2l268 330.4c3.2 4 4.8 8.8 4 14.4s-3.2 9.6-7.2 12.8l-256 207.2c-4 2.4-8 4-12 4zM512 435.2c-6.4 0-12.8 2.4-18.4 6.4L440 485.6c-5.6 4.8-6.4 12.8-1.6 17.6 4.8 5.6 12.8 6.4 17.6 1.6l54.4-43.2c1.6-0.8 3.2-0.8 4.8 0.8L605.6 568c4.8 5.6 12.8 5.6 18.4 1.6 5.6-4.8 5.6-12.8 1.6-18.4L533.6 445.6c-5.6-6.4-13.6-10.4-21.6-10.4z"  horiz-adv-x="1024" />

    
    <glyph glyph-name="liuyanban" unicode="&#58908;" d="M512 384m-512 0a512 512 0 1 1 1024 0 512 512 0 1 1-1024 0ZM685.6 589.6H350.4L499.2 720c11.2 9.6 27.2 9.6 38.4 0l148-130.4z m-268 25.6h200L520 700.8c-1.6 0.8-3.2 0.8-4 0L417.6 615.2zM208 608h624c17.6 0 32-14.4 32-32v-464c0-17.6-14.4-32-32-32H208c-17.6 0-32 14.4-32 32V576c0 17.6 14.4 32 32 32zM832 68.8H208c-24 0-43.2 19.2-43.2 43.2V576c0 24 19.2 43.2 43.2 43.2h624c24 0 43.2-19.2 43.2-43.2v-464c0-24-19.2-43.2-43.2-43.2z m-624 528c-11.2 0-20.8-8.8-20.8-20.8v-464c0-11.2 8.8-20.8 20.8-20.8h624c11.2 0 20.8 8.8 20.8 20.8V576c0 11.2-8.8 20.8-20.8 20.8H208zM744 443.2H536c-7.2 0-12.8 5.6-12.8 12.8s5.6 12.8 12.8 12.8h208c7.2 0 12.8-5.6 12.8-12.8s-5.6-12.8-12.8-12.8zM744 383.2H536c-7.2 0-12.8 5.6-12.8 12.8s5.6 12.8 12.8 12.8h208c7.2 0 12.8-5.6 12.8-12.8s-5.6-12.8-12.8-12.8zM664 319.2H536c-7.2 0-12.8 5.6-12.8 12.8s5.6 12.8 12.8 12.8h128c7.2 0 12.8-5.6 12.8-12.8s-5.6-12.8-12.8-12.8zM288 144h96c17.6 0 32-14.4 32-32s-14.4-32-32-32H288c-17.6 0-32 14.4-32 32s14.4 32 32 32zM384 68.8H288c-24 0-43.2 19.2-43.2 43.2s19.2 43.2 43.2 43.2h96c24 0 43.2-19.2 43.2-43.2s-19.2-43.2-43.2-43.2z m-96 64c-11.2 0-20.8-8.8-20.8-20.8s8.8-20.8 20.8-20.8h96c11.2 0 20.8 8.8 20.8 20.8s-8.8 20.8-20.8 20.8H288zM520 680m-24 0a24 24 0 1 1 48 0 24 24 0 1 1-48 0Z"  horiz-adv-x="1024" />

    
    <glyph glyph-name="huaban" unicode="&#59056;" d="M511.446703 383.446537m-121.448505-496.694546a511.326913 511.326913 0 1 1 242.897011 993.389093 511.326913 511.326913 0 1 1-242.897011-993.389093ZM511.446703 387.414786m-259.66778 0a259.66778 259.66778 0 1 1 519.335561 0 259.66778 259.66778 0 1 1-519.335561 0ZM511.446703 387.414786m-228.498988 0a228.498989 228.498989 0 1 1 456.997977 0 228.498989 228.498989 0 1 1-456.997977 0ZM697.088604 441.960172a106.926271 106.926271 0 0 0 2.885999-82.106678 10.389597 10.389597 0 0 0-19.552645 7.214998 86.579977 86.579977 0 0 1-51.082186 111.25527 10.317447 10.317447 0 1 0 7.214998 19.408345 106.349071 106.349071 0 0 0 60.533834-55.771935zM662.023713 423.345477a76.11823 76.11823 0 0 0 0.64935-58.513635 10.389597 10.389597 0 0 0-13.492047-5.771998 10.317447 10.317447 0 0 0-5.771998 13.492046 55.627635 55.627635 0 0 1-0.5772 42.640639 54.978285 54.978285 0 0 1-30.519442 29.797942 10.389597 10.389597 0 1 0 7.720048 19.336195 76.623279 76.623279 0 0 0 41.991289-40.981189zM602.427829 370.748141c-2.453099 30.447292-24.603143 61.327484-78.499179 63.203383l-2.885999 31.313092c37.80659 5.411249 59.812334 36.94079 58.657934 64.429932-1.08225 25.901843-22.438644 53.679586-78.932079 53.679586a10.389597 10.389597 0 0 1-7.647898-3.463199 10.317447 10.317447 0 0 1-2.669549-7.936498l8.080798-88.672326c-38.52809-7.214998-67.099482-27.128393-81.385178-57.719985a101.587173 101.587173 0 0 1 9.523797-101.009973 103.968122 103.968122 0 0 1 87.662227-43.289988h2.597399l3.030299-32.828241a28.859992 28.859992 0 0 0-11.616147-28.859993 40.836889 40.836889 0 0 0-29.292892-6.709948 33.621891 33.621891 0 0 1 0 33.188991 26.767643 26.767643 0 0 1-28.859992 14.429996c-3.607499-1.0101-15.367946-5.988448-14.429996-25.757543a43.289988 43.289988 0 0 1 24.675293-37.878739 56.132685 56.132685 0 0 1 24.675293-5.483399 61.760383 61.760383 0 0 1 35.497791 11.038947 49.278437 49.278437 0 0 1 20.129845 48.268337l-3.0303 33.261141a84.631927 84.631927 0 0 1 64.718533 86.796427zM460.725267 222.552081a23.304444 23.304444 0 0 0-4.328999 13.203446 26.334743 26.334743 0 0 1 0 4.617599 11.760447 11.760447 0 0 0 5.699849-6.565648 13.203446 13.203446 0 0 0-1.37085-11.255397zM511.374553 361.585093a25.829693 25.829693 0 0 0-25.829693 25.829693 26.406893 26.406893 0 0 0 22.366494 25.180344H512.384653a25.685393 25.685393 0 0 0-1.298699-51.370787zM558.921391 528.828748c0.79365-18.037495-14.862896-38.67239-39.75464-42.784938L512.384653 562.08989c28.859992-2.453099 45.815238-14.502146 46.536738-33.261142zM443.697872 336.98195a81.818078 81.818078 0 0 0-7.720048 80.014328c11.038947 23.593044 33.694041 39.393889 64.502082 45.526638l2.66955-29.365042a47.113937 47.113937 0 0 1-38.38379-45.743088 46.608887 46.608887 0 0 1 46.608887-46.536737l3.535349-38.52809a82.683878 82.683878 0 0 0-71.21203 34.631991zM535.689097 304.370159l-3.751799 41.125489a46.103838 46.103838 0 0 1 21.644994 60.822433 43.289988 43.289988 0 0 0 28.138493-37.01294 63.708433 63.708433 0 0 0-46.031688-64.934982z"  horiz-adv-x="1024" />

    
    <glyph glyph-name="xinshuai" unicode="&#59583;" d="M513.755396 18.640503h-3.516437a22.560512 22.560512 0 0 0-21.284886 15.070444c-10.323537 29.249079-54.445508 93.041649-234.003924 191.631705-169.827538 93.233557-201.317429 239.636997-174.151119 345.54779C107.74521 675.971514 190.023063 749.359497 280.869055 749.359497c131.191886 0 199.872473-81.374755 231.125301-135.803329 31.252828 54.42293 99.922125 135.803329 231.136589 135.803329 90.851637 0 173.123845-73.387984 200.070025-178.469055 27.16631-105.916437-4.323581-252.319877-174.156763-345.54779-179.552773-98.590056-223.674744-162.38827-233.99828-191.631705a22.5718 22.5718 0 0 0-21.290531-15.070444zM280.869055 702.274237c-70.221497 0-134.510771-59.435123-156.331871-144.529512-22.955617-89.508279 4.955749-213.949509 152.143755-294.754184 119.000066-65.327836 197.857436-125.457215 235.313417-179.287487 37.461625 53.830272 116.318995 113.954007 235.313416 179.287487 147.188006 80.804674 175.099372 205.245905 152.143755 294.754184-21.815456 85.100033-86.110374 144.529512-156.326227 144.529512-154.367633 0-204.517782-135.735597-209.727527-151.212436a22.577445 22.577445 0 0 0-42.795546-0.005644c-5.209745 15.476838-55.399405 151.21808-209.733172 151.21808zM866.923074 370.555132l-118.446919 119.75641a22.588733 22.588733 0 0 1-15.99612 6.699857h-0.056443a22.594378 22.594378 0 0 1-15.967898-6.609547L613.598501 387.544659 532.003616 452.578988a22.577445 22.577445 0 0 1-30.66017-2.348054L416.322434 358.103671H165.70151c11.407254-15.544571 25.066608-30.694036 41.248992-45.154889h219.260853a22.566156 22.566156 0 0 1 16.588777 7.264293l77.480146 83.965516 80.940139-64.520692a22.577445 22.577445 0 0 1 30.03929 1.687664l101.067931 101.073575 106.63327-107.807298a275.027141 275.027141 0 0 1 27.962166 35.943292z"  horiz-adv-x="1024" />

    
    <glyph glyph-name="shouye" unicode="&#58895;" d="M950.09191-121.179089V-127.460956h-29.656257l-0.58436-0.14609H103.500732L102.916372-127.460956H73.47925v6.281867a105.915203 105.915203 0 0 0-72.825833 101.02119v476.253191a104.016034 104.016034 0 0 0 32.870236 77.354621L437.900595 864.051438c21.986535 20.963906 50.985388 31.409336 79.911195 31.409336 28.925807 0 57.92466-10.44543 79.911195-31.409336l392.032342-330.601525c22.278715-21.256086 33.23546-49.305353 32.943281-77.354621v-476.253191c0-47.844454-30.971066-87.215692-72.606698-101.02119z m-291.449422 219.938398c0 76.697216-66.178741 139.515889-146.966475 139.515889-80.860779 0-146.966475-62.818672-146.966476-139.515889v-225.708951h293.932951v225.708951z"  horiz-adv-x="1024" />

    
    <glyph glyph-name="icon_home" unicode="&#59689;" d="M102.4 384h819.2v-443.733333H102.4zM966.314667 614.741333l-426.666667 273.066667a51.2 51.2 0 0 1-55.296 0l-426.666667-273.066667A51.2 51.2 0 0 1 34.133333 571.733333v-648.533333A51.2 51.2 0 0 1 85.333333-128h853.333334a51.2 51.2 0 0 1 51.2 51.2v648.533333a51.2 51.2 0 0 1-23.552 43.008zM887.466667-25.6H136.533333V543.744l375.466667 238.933333 375.466667-238.933333zM512 179.2m-68.266667 0a68.266667 68.266667 0 1 1 136.533334 0 68.266667 68.266667 0 1 1-136.533334 0Z"  horiz-adv-x="1024" />

    
    <glyph glyph-name="icon_address" unicode="&#59691;" d="M874.7782 480.665033a357.317757 357.317757 0 0 1-19.111551 114.669309A358.34159 358.34159 0 0 1 324.297262 281.700131a530.004276 530.004276 0 0 1 90.097314-277.800052 1079.120103 1079.120103 0 0 1 102.383312-86.343259s358.000313 255.958279 358.000312 563.108213zM512 896A409.533246 409.533246 0 0 1 102.466754 486.466754c0-365.508422 366.873533-596.894706 382.572307-606.79176a51.191656 51.191656 0 0 1 53.921878 0C554.659713-110.427952 921.533246 120.958332 921.533246 486.466754A409.533246 409.533246 0 0 1 512 896z m0-910.528917C432.482295 42.805737 204.850065 230.849753 204.850065 486.466754a307.149935 307.149935 0 0 0 614.29987 0c0-255.617001-227.632229-443.661017-307.149935-500.995671zM512 520.594524m-102.383312 0a102.383312 102.383312 0 1 1 204.766624 0 102.383312 102.383312 0 1 1-204.766624 0Z"  horiz-adv-x="1024" />

    
    <glyph glyph-name="icon_edit" unicode="&#59697;" d="M256 172.032L756.736 672.768l156.672-178.176L409.6 4.437333l-153.6 167.594667zM974.848 529.749333l-317.098667 317.098667a51.2 51.2 0 0 1-72.362666 0L49.152 310.613333A51.2 51.2 0 0 1 34.133333 274.432v-317.098667A51.2 51.2 0 0 1 85.333333-93.866667h317.098667a51.2 51.2 0 0 1 36.181333 15.018667l536.234667 536.234667a51.2 51.2 0 0 1 0 72.362666zM136.533333 223.914667L351.914667 8.533333H136.533333z m302.421334-157.354667l-244.736 244.394667L621.568 738.304l244.394667-244.394667z"  horiz-adv-x="1024" />

    
    <glyph glyph-name="icon_label" unicode="&#59700;" d="M318.917638 671.154704l482.659407-482.62528-265.474618-265.440491L53.477147 405.74834zM511.906321-127.999317a51.190632 51.190632 0 0 0-36.174713 15.015918L15.015919 347.73229a51.190632 51.190632 0 0 0 0 72.349427L475.731608 880.797406A50.849361 50.849361 0 0 0 516.342843 895.813325l424.199704-36.515984a51.190632 51.190632 0 0 0 46.754111-46.754111L1023.812642 388.343525a51.190632 51.190632 0 0 0-14.674648-40.611235l-460.715689-460.715689A51.190632 51.190632 0 0 0 511.906321-127.999317zM123.540059 383.907004L511.906321-4.459259l407.818703 407.818703L887.30429 759.304973l-357.651883 30.714379zM730.076655 601.87843m-48.504306-48.504306a68.595447 68.595447 0 1 1 97.008612 97.008612 68.595447 68.595447 0 1 1-97.008612-97.008612Z"  horiz-adv-x="1024" />

    
    <glyph glyph-name="icon_collect" unicode="&#59714;" d="M699.886933 520.533333a425.642667 425.642667 0 0 1-409.6-542.037333l221.866667 117.077333 284.672-149.845333-54.272 317.098667 192.170667 187.050666A424.277333 424.277333 0 0 1 699.886933 520.533333zM796.8256-105.472a51.2 51.2 0 0 0-23.893333 5.802667l-261.12 136.533333-261.12-136.533333a51.2 51.2 0 0 0-74.410667 53.930666l49.834667 290.474667L15.5136 452.266667a51.2 51.2 0 0 0 28.330667 87.381333l291.84 40.96 130.389333 264.192a51.2 51.2 0 0 0 91.818667 0l130.389333-264.533333 291.84-42.325334a51.2 51.2 0 0 0 28.672-85.674666l-211.285333-204.8 49.834666-290.474667a51.2 51.2 0 0 0-50.517333-59.733333zM512.1536 145.066667a51.2 51.2 0 0 0 23.893333-5.802667l192.853334-102.4-36.864 217.429333a51.2 51.2 0 0 0 14.677333 45.397334L863.044267 452.266667 648.686933 482.986667a51.2 51.2 0 0 0-38.570666 27.989333L512.1536 706.56l-96.597333-195.584a51.2 51.2 0 0 0-39.936-27.989333l-214.357334-30.72 156.330667-152.576a51.2 51.2 0 0 0 14.677333-45.397334l-36.864-215.04 192.853334 102.4a51.2 51.2 0 0 0 23.893333 3.413334z"  horiz-adv-x="1024" />

    
    <glyph glyph-name="arrow-down" unicode="&#58887;" d="M512.365 210.005l433.68 433.68c17.574 17.574 46.066 17.574 63.64 0 17.574-17.574 17.574-46.066 0-63.64L562.57 132.92999999999995c-27.727-27.727-72.682-27.727-100.41 0L15.046 580.0450000000001c-17.573 17.574-17.573 46.066 0 63.64 17.574 17.574 46.066 17.574 63.64 0l433.68-433.68z"  horiz-adv-x="1024" />

    
    <glyph glyph-name="arrow-top" unicode="&#58888;" d="M512.365 558.995l-433.68-433.68c-17.574-17.574-46.066-17.574-63.64 0-17.573 17.574-17.573 46.066 0 63.64L462.161 636.0699999999999c27.727 27.727 72.682 27.727 100.409 0l447.115-447.115c17.574-17.574 17.574-46.066 0-63.64-17.574-17.574-46.066-17.574-63.64 0l-433.68 433.68z"  horiz-adv-x="1024" />

    
    <glyph glyph-name="arrow-right" unicode="&#58889;" d="M686.86 383.5L253.18 817.1800000000001c-17.573 17.574-17.573 46.066 0 63.64 17.574 17.573 46.066 17.573 63.64 0l447.115-447.115c27.727-27.728 27.727-72.682 0-100.41L316.82-113.82000000000005c-17.574-17.573-46.066-17.573-63.64 0-17.573 17.574-17.573 46.066 0 63.64L686.86 383.5z"  horiz-adv-x="1024" />

    
    <glyph glyph-name="arrow-left" unicode="&#58890;" d="M337.87 383.5L771.55 817.1800000000001c17.574 17.574 17.574 46.066 0 63.64-17.573 17.573-46.066 17.573-63.64 0L260.796 433.705c-27.727-27.728-27.727-72.682 0-100.41l447.116-447.115c17.573-17.573 46.066-17.573 63.64 0 17.573 17.574 17.573 46.066 0 63.64L337.87 383.5z"  horiz-adv-x="1024" />

    
    <glyph glyph-name="refresh" unicode="&#58891;" d="M824.264 800.64c0 23.859 25.043 44.16 48.902 44.16s49.714-20.301 49.714-44.16v-190.08c0-23.859-19.054-52.868-42.913-52.868h-190.08c-23.859 0-46.696 25.96-46.696 49.819s22.55 46.249 46.409 46.249h82.025C702.344 720.466 610.22 740.1469999999999 512 740.1469999999999c-206.775 0-360.398-149.372-360.398-356.147 0-206.775 153.623-358.23 360.398-358.23 206.775 0 357.467 151.455 357.467 358.23 0 23.859 23.634 50.706 53.413 50.706 29.78 0 49.92-26.847 49.92-50.706 0-254.493-206.307-460.8-460.8-460.8-254.493 0-460.8 206.307-460.8 460.8C51.2 638.4929999999999 257.507 844.8 512 844.8c122.4 0 226.684-33.296 312.264-117.369 0.358-0.351 0.358 24.052 0 73.209z"  horiz-adv-x="1024" />

    
    <glyph glyph-name="hollow-close" unicode="&#58892;" d="M512-6c215.391 0 390 174.609 390 390S727.391 774 512 774 122 599.3910000000001 122 384s174.609-390 390-390z m0.201 453.643L638.99 574.4300000000001c42.426 42.427 106.066-21.213 63.64-63.64L575.84 384.004 702.985 256.86c42.427-42.427-21.213-106.066-63.64-63.64L512.202 320.36400000000003 385.057 193.21900000000005c-42.426-42.426-106.066 21.213-63.64 63.64l127.145 127.144-126.788 126.788c-42.426 42.426 21.213 106.066 63.64 63.64L512.2 447.642zM512-96C246.903-96 32 118.90300000000002 32 384S246.903 864 512 864s480-214.903 480-480-214.903-480-480-480z"  horiz-adv-x="1024" />

    
    <glyph glyph-name="hollow-add" unicode="&#58893;" d="M512-6c215.391 0 390 174.609 390 390S727.391 774 512 774 122 599.3910000000001 122 384s174.609-390 390-390z m0-90C246.903-96 32 118.90300000000002 32 384S246.903 864 512 864s480-214.903 480-480-214.903-480-480-480z m45.328 524.951V608.256c0 60-90 60-90 0V428.95h-179.81c-60 0-60-90 0-90h179.81v-179.81c0-60 90-60 90 0V338.95000000000005h179.304c60 0 60 90 0 90H557.328v0.001z"  horiz-adv-x="1024" />

    
    <glyph glyph-name="hollow-tick" unicode="&#58894;" d="M512-6c215.391 0 390 174.609 390 390S727.391 774 512 774 122 599.3910000000001 122 384s174.609-390 390-390z m0-90C246.903-96 32 118.90300000000002 32 384S246.903 864 512 864s480-214.903 480-480-214.903-480-480-480z m-67.822 382.898L323.82 407.256c-17.574 17.574-46.066 17.574-63.64 0-17.573-17.573-17.573-46.066 0-63.64l143.47-143.47c22.383-22.382 58.673-22.382 81.057 0L745.74 461.18c17.574 17.574 17.574 46.066 0 63.64-17.574 17.573-46.066 17.573-63.64 0L444.178 286.898z"  horiz-adv-x="1024" />

    


  </font>
</defs>
</svg>
